<svg width="23" height="23" viewBox="0 0 23 23" fill="none" xmlns="http://www.w3.org/2000/svg">
<path d="M14.375 17.25C15.9628 17.25 17.25 15.9628 17.25 14.375C17.25 12.7872 15.9628 11.5 14.375 11.5C12.7872 11.5 11.5 12.7872 11.5 14.375C11.5 15.9628 12.7872 17.25 14.375 17.25Z" stroke="#BEBEBE" stroke-width="1.19976" stroke-linecap="round" stroke-linejoin="round"/>
<path d="M12.4583 16.7708V21.0833L14.375 19.6458L16.2916 21.0833V16.7708" stroke="#BEBEBE" stroke-width="1.19976" stroke-linecap="round" stroke-linejoin="round"/>
<path d="M9.58336 18.2084H4.7917C4.28337 18.2084 3.79585 18.0065 3.43641 17.647C3.07696 17.2876 2.87503 16.8001 2.87503 16.2917V6.70841C2.87503 5.65425 3.73753 4.79175 4.7917 4.79175H18.2084C18.7167 4.79175 19.2042 4.99368 19.5637 5.35313C19.9231 5.71257 20.125 6.20008 20.125 6.70841V16.2917C20.1247 16.6279 20.036 16.958 19.8678 17.249C19.6995 17.54 19.4578 17.7816 19.1667 17.9497" stroke="#BEBEBE" stroke-width="1.19976" stroke-linecap="round" stroke-linejoin="round"/>
<path d="M5.75 8.625H17.25" stroke="#BEBEBE" stroke-width="1.19976" stroke-linecap="round" stroke-linejoin="round"/>
<path d="M5.75 11.5H8.625" stroke="#BEBEBE" stroke-width="1.19976" stroke-linecap="round" stroke-linejoin="round"/>
<path d="M5.75 14.3752H7.66667" stroke="#BEBEBE" stroke-width="1.19976" stroke-linecap="round" stroke-linejoin="round"/>
</svg>
