<svg width="15" height="22" viewBox="0 0 15 22" fill="none" xmlns="http://www.w3.org/2000/svg">
<path d="M12.5527 7.1985C13.2726 6.75344 13.8277 6.08572 14.1338 5.29664C14.4399 4.50755 14.4803 3.64016 14.2488 2.82605C14.0173 2.01194 13.5267 1.29554 12.8512 0.785526C12.1757 0.275515 11.3524 -0.000273133 10.506 2.02984e-07H3.89111C3.04473 -0.000273133 2.22136 0.275515 1.5459 0.785526C0.870444 1.29554 0.379762 2.01194 0.148294 2.82605C-0.0831744 3.64016 -0.0427967 4.50755 0.263301 5.29664C0.569399 6.08572 1.12451 6.75344 1.84443 7.1985C1.28054 7.54684 0.815079 8.03357 0.492261 8.61245C0.169443 9.19133 -9.55188e-06 9.84314 4.03833e-10 10.5059C9.55269e-06 11.1687 0.169481 11.8205 0.492316 12.3994C0.81515 12.9783 1.28063 13.465 1.84452 13.8133C1.2681 14.1701 0.794891 14.6712 0.471794 15.2672C0.148697 15.8631 -0.0130749 16.5331 0.00250668 17.2108C0.0180883 17.8885 0.210483 18.5504 0.560627 19.1309C0.910771 19.7113 1.40651 20.1902 1.99872 20.5201C2.59094 20.85 3.25906 21.0194 3.93691 21.0115C4.61475 21.0037 5.27878 20.8188 5.86319 20.4753C6.4476 20.1318 6.93211 19.6416 7.26872 19.0532C7.60532 18.4648 7.78234 17.7986 7.78222 17.1207V13.2812C8.17259 13.6647 8.6395 13.9615 9.15244 14.1522C9.66538 14.343 10.2128 14.4233 10.7589 14.388C11.305 14.3526 11.8375 14.2025 12.3216 13.9473C12.8057 13.6921 13.2305 13.3376 13.5682 12.9069C13.9059 12.4763 14.149 11.9793 14.2814 11.4483C14.4139 10.9174 14.4328 10.3644 14.337 9.82562C14.2411 9.28684 14.0327 8.77434 13.7252 8.32164C13.4177 7.86894 13.0182 7.48622 12.5527 7.1985ZM13.2298 3.89111C13.229 4.61291 12.942 5.30495 12.4318 5.81552C11.9215 6.32609 11.2297 6.61353 10.5079 6.61483L10.506 6.61478L10.5022 6.61488L7.78222 6.61478V1.16733H10.506C11.2281 1.16814 11.9205 1.45537 12.4311 1.966C12.9417 2.47663 13.229 3.16897 13.2298 3.89111ZM1.16733 3.89111C1.16814 3.16897 1.45537 2.47663 1.966 1.966C2.47663 1.45537 3.16897 1.16814 3.89111 1.16733H6.61488V6.61478H3.89111L3.88926 6.61483C3.16745 6.61354 2.47559 6.3261 1.96536 5.81553C1.45513 5.30496 1.16815 4.61292 1.16733 3.89111ZM1.16733 10.5059C1.16815 9.78408 1.45513 9.09203 1.96536 8.58146C2.47559 8.07089 3.16744 7.78346 3.88926 7.78216L3.89111 7.78221L6.61488 7.78214V13.2296L3.89111 13.2297C3.16897 13.2289 2.47663 12.9416 1.966 12.431C1.45537 11.9204 1.16814 11.228 1.16733 10.5059ZM3.89111 19.8445C3.53323 19.8448 3.1788 19.7745 2.84808 19.6378C2.51735 19.501 2.21682 19.3005 1.96365 19.0475C1.71049 18.7946 1.50965 18.4942 1.37263 18.1636C1.23561 17.833 1.16508 17.4786 1.16508 17.1207C1.16508 16.7628 1.23561 16.4085 1.37263 16.0779C1.50965 15.7473 1.71049 15.4469 1.96365 15.1939C2.21682 14.941 2.51735 14.7404 2.84808 14.6037C3.1788 14.4669 3.53323 14.3967 3.89111 14.397L6.61488 14.3969V17.1207C6.61406 17.8429 6.32683 18.5352 5.8162 19.0458C5.30557 19.5564 4.61324 19.8436 3.89111 19.8445ZM10.506 13.2297C9.78407 13.2295 9.09177 12.9427 8.58119 12.4323C8.07062 11.9219 7.78354 11.2297 7.78305 10.5078C7.78255 9.7859 8.06867 9.09331 8.57854 8.58224C9.08841 8.07117 9.78032 7.78342 10.5022 7.78221H10.506L10.5078 7.78217C11.2298 7.78312 11.9218 8.07063 12.4318 8.58153C12.9419 9.09243 13.2282 9.78492 13.228 10.5068C13.2278 11.2288 12.9409 11.9211 12.4305 12.4316C11.9201 12.9422 11.2279 13.2292 10.506 13.2297Z" fill="#BEBEBE"/>
</svg>
