<svg width="43" height="32" viewBox="0 0 43 32" fill="none" xmlns="http://www.w3.org/2000/svg">
<path d="M2.27316 0.0108183C1.56616 0.123939 0.933045 0.513283 0.513105 1.0932C0.0931657 1.67312 -0.0792032 2.3961 0.0339176 3.10311C0.147038 3.81011 0.536383 4.44322 1.1163 4.86316C1.69622 5.2831 2.4192 5.45547 3.12621 5.34235H11.1235L11.6033 6.67523L13.7893 13.3396L15.9752 20.0041C16.1885 20.6972 17.0948 21.3369 17.7879 21.3369H36.4483C37.1947 21.3369 38.0477 20.6972 38.261 20.0041L42.5795 6.67523C42.7928 5.98213 42.4729 5.34235 41.7265 5.34235H18.0545L16.0285 1.50365C15.8127 1.06305 15.4795 0.690538 15.0656 0.427144C14.6517 0.163751 14.1732 0.0196874 13.6826 0.0108183L3.01957 0.0108183C2.85995 -0.0036061 2.69936 -0.0036061 2.53974 0.0108183C2.4332 0.0044147 2.32638 0.0044147 2.21984 0.0108183L2.27316 0.0108183ZM19.1208 26.6685C17.628 26.6685 16.455 27.8414 16.455 29.3342C16.455 30.8271 17.628 32 19.1208 32C20.6136 32 21.7866 30.8271 21.7866 29.3342C21.7866 27.8414 20.6136 26.6685 19.1208 26.6685ZM35.1154 26.6685C33.6226 26.6685 32.4496 27.8414 32.4496 29.3342C32.4496 30.8271 33.6226 32 35.1154 32C36.6082 32 37.7812 30.8271 37.7812 29.3342C37.7812 27.8414 36.6082 26.6685 35.1154 26.6685Z" fill="#BEBEBE"/>
</svg>
