<svg width="22" height="15" viewBox="0 0 22 15" fill="none" xmlns="http://www.w3.org/2000/svg">
<path d="M3.21429 6.42857C4.39621 6.42857 5.35714 5.46763 5.35714 4.28571C5.35714 3.10379 4.39621 2.14286 3.21429 2.14286C2.03237 2.14286 1.07143 3.10379 1.07143 4.28571C1.07143 5.46763 2.03237 6.42857 3.21429 6.42857ZM18.2143 6.42857C19.3962 6.42857 20.3571 5.46763 20.3571 4.28571C20.3571 3.10379 19.3962 2.14286 18.2143 2.14286C17.0324 2.14286 16.0714 3.10379 16.0714 4.28571C16.0714 5.46763 17.0324 6.42857 18.2143 6.42857ZM19.2857 7.5H17.1429C16.5536 7.5 16.0212 7.73772 15.6328 8.12277C16.9821 8.86272 17.9397 10.1987 18.1473 11.7857H20.3571C20.9498 11.7857 21.4286 11.3069 21.4286 10.7143V9.64286C21.4286 8.46094 20.4676 7.5 19.2857 7.5ZM10.7143 7.5C12.7868 7.5 14.4643 5.82254 14.4643 3.75C14.4643 1.67746 12.7868 0 10.7143 0C8.64174 0 6.96429 1.67746 6.96429 3.75C6.96429 5.82254 8.64174 7.5 10.7143 7.5ZM13.2857 8.57143H13.0078C12.3114 8.90625 11.5379 9.10714 10.7143 9.10714C9.89062 9.10714 9.12054 8.90625 8.42076 8.57143H8.14286C6.01339 8.57143 4.28571 10.2991 4.28571 12.4286V13.3929C4.28571 14.2801 5.00558 15 5.89286 15H15.5357C16.423 15 17.1429 14.2801 17.1429 13.3929V12.4286C17.1429 10.2991 15.4152 8.57143 13.2857 8.57143ZM5.79576 8.12277C5.40737 7.73772 4.875 7.5 4.28571 7.5H2.14286C0.960938 7.5 0 8.46094 0 9.64286V10.7143C0 11.3069 0.478795 11.7857 1.07143 11.7857H3.2779C3.48884 10.1987 4.44643 8.86272 5.79576 8.12277Z" fill="#BEBEBE"/>
</svg>
